<svg width="648" height="648" viewBox="0 0 648 648" fill="none" xmlns="http://www.w3.org/2000/svg">
    <g clip-path="url(#clip0_62_615)">
        <path d="M324 648C502.94 648 648 502.94 648 324C648 145.06 502.94 0 324 0C145.06 0 0 145.06 0 324C0 502.94 145.06 648 324 648Z"
              fill="url(#paint0_linear_62_615)"/>
        <path d="M324 639C497.97 639 639 497.97 639 324C639 150.03 497.97 9 324 9C150.03 9 9 150.03 9 324C9 497.97 150.03 639 324 639Z"
              fill="#1C1C1E"/>
        <path d="M324 355.5C341.397 355.5 355.5 341.397 355.5 324C355.5 306.603 341.397 292.5 324 292.5C306.603 292.5 292.5 306.603 292.5 324C292.5 341.397 306.603 355.5 324 355.5Z"
              fill="#14181B" fill-opacity="0.9" stroke="url(#paint1_linear_62_615)" stroke-width="4"/>
        <path d="M65.2574 389.682L40.9161 396.204C38.9956 396.719 37.8559 398.693 38.3705 400.613C38.8851 402.534 40.8591 403.673 42.7796 403.159L67.1209 396.636C69.0414 396.122 70.1811 394.148 69.6665 392.227C69.1519 390.307 67.1779 389.167 65.2574 389.682Z"
              fill="#F2F2F7"/>
        <path d="M602.506 245.726L578.164 252.248C576.244 252.763 575.104 254.737 575.619 256.657C576.133 258.578 578.107 259.717 580.028 259.203L604.369 252.681C606.29 252.166 607.429 250.192 606.915 248.272C606.4 246.351 604.426 245.211 602.506 245.726Z"
              fill="#F2F2F7"/>
        <path d="M132.051 509.558L114.232 527.377C112.826 528.783 112.826 531.062 114.232 532.468C115.638 533.874 117.917 533.874 119.323 532.468L137.142 514.649C138.548 513.243 138.548 510.964 137.142 509.558C135.736 508.152 133.457 508.152 132.051 509.558Z"
              fill="#F2F2F7"/>
        <path d="M525.344 116.265L507.525 134.084C506.119 135.49 506.119 137.77 507.525 139.175C508.931 140.581 511.21 140.581 512.616 139.175L530.435 121.356C531.841 119.95 531.841 117.671 530.435 116.265C529.029 114.859 526.75 114.859 525.344 116.265Z"
              fill="#F2F2F7"/>
        <path d="M394.096 42.1555L387.574 66.4968C387.059 68.4173 388.199 70.3913 390.119 70.9059C392.04 71.4205 394.014 70.2808 394.528 68.3603L401.051 44.019C401.565 42.0985 400.425 40.1245 398.505 39.6099C396.584 39.0953 394.61 40.235 394.096 42.1555Z"
              fill="#F2F2F7"/>
        <path d="M243.927 44.5795L250.449 68.9209C250.964 70.8413 252.938 71.981 254.858 71.4664C256.779 70.9519 257.918 68.9778 257.404 67.0574L250.881 42.716C250.367 40.7956 248.393 39.6559 246.472 40.1704C244.552 40.685 243.412 42.6591 243.927 44.5795Z"
              fill="#F2F2F7"/>
        <path d="M507.525 514.164L525.344 531.983C526.75 533.389 529.029 533.389 530.435 531.983C531.841 530.577 531.841 528.298 530.435 526.892L512.616 509.073C511.21 507.667 508.931 507.667 507.525 509.073C506.119 510.479 506.119 512.758 507.525 514.164Z"
              fill="#F2F2F7"/>
        <path d="M114.233 120.871L132.052 138.69C133.458 140.096 135.737 140.096 137.143 138.69C138.549 137.285 138.549 135.005 137.143 133.599L119.324 115.78C117.918 114.374 115.639 114.374 114.233 115.78C112.827 117.186 112.827 119.466 114.233 120.871Z"
              fill="#F2F2F7"/>
        <path d="M577.603 396.945L601.945 403.467C603.865 403.982 605.839 402.842 606.354 400.922C606.868 399.001 605.729 397.027 603.808 396.513L579.467 389.99C577.546 389.476 575.572 390.615 575.058 392.536C574.543 394.456 575.683 396.43 577.603 396.945Z"
              fill="#F2F2F7"/>
        <path d="M40.3559 252.989L64.6972 259.511C66.6177 260.026 68.5917 258.886 69.1063 256.966C69.6209 255.045 68.4812 253.071 66.5607 252.556L42.2194 246.034C40.2989 245.52 38.3249 246.659 37.8103 248.58C37.2957 250.5 38.4354 252.474 40.3559 252.989Z"
              fill="#F2F2F7"/>
        <path d="M151.824 516.143C150.878 516.143 150.16 515.903 149.67 515.425C149.191 514.946 148.952 514.311 148.952 513.521C148.952 512.953 149.08 512.441 149.336 511.985C149.592 511.528 150.026 511.038 150.638 510.515L157.519 504.269C158.932 502.978 159.884 501.976 160.374 501.263C160.864 500.551 161.109 499.805 161.109 499.026C161.109 498.157 160.803 497.445 160.19 496.888C159.589 496.332 158.809 496.053 157.853 496.053C157.073 496.053 156.394 496.248 155.815 496.638C155.247 497.016 154.741 497.612 154.295 498.425C153.906 499.026 153.505 499.454 153.094 499.711C152.692 499.966 152.185 500.095 151.573 500.095C150.783 500.095 150.16 499.883 149.703 499.46C149.258 499.026 149.035 498.43 149.035 497.673C149.035 497.173 149.119 496.727 149.286 496.337C149.831 494.901 150.872 493.727 152.409 492.814C153.956 491.9 155.798 491.444 157.936 491.444C160.674 491.444 162.873 492.107 164.532 493.431C166.202 494.756 167.037 496.488 167.037 498.625C167.037 499.237 166.964 499.816 166.819 500.362C166.686 500.896 166.497 501.403 166.252 501.881C166.007 502.349 165.645 502.867 165.167 503.435C164.699 503.991 164.204 504.526 163.68 505.038C163.168 505.55 162.49 506.184 161.644 506.941L156.85 511.316V511.433H165.183C165.952 511.433 166.553 511.645 166.987 512.068C167.421 512.491 167.638 513.064 167.638 513.788C167.638 514.5 167.421 515.074 166.987 515.508C166.553 515.931 165.952 516.143 165.183 516.143H151.824ZM187.778 513.338C185.941 515.608 183.424 516.744 180.229 516.744C177.034 516.744 174.513 515.614 172.665 513.354C170.816 511.083 169.893 507.983 169.893 504.052C169.893 500.123 170.816 497.039 172.665 494.801C174.523 492.552 177.045 491.428 180.229 491.428C183.414 491.428 185.929 492.547 187.778 494.784C189.625 497.011 190.55 500.095 190.55 504.036C190.55 507.965 189.625 511.066 187.778 513.338ZM180.229 511.968C181.532 511.968 182.54 511.3 183.252 509.963C183.964 508.617 184.321 506.646 184.321 504.052C184.321 501.458 183.959 499.505 183.235 498.191C182.523 496.866 181.521 496.203 180.229 496.203C178.938 496.203 177.931 496.866 177.206 498.191C176.483 499.515 176.121 501.464 176.121 504.036C176.121 506.63 176.483 508.6 177.206 509.947C177.931 511.295 178.938 511.968 180.229 511.968Z"
              fill="#F2F2F7"/>
        <path d="M94.1616 401.326C93.2823 401.326 92.5749 401.076 92.0412 400.575C91.5174 400.074 91.2564 399.351 91.2564 398.404V396.834H83.04C81.9378 396.834 81.0416 396.518 80.3514 395.883C79.6722 395.249 79.3328 394.424 79.3328 393.412C79.3328 392.298 79.7391 391.023 80.5518 389.588C81.9322 387.094 83.8471 383.999 86.2963 380.302C87.2204 378.866 88.0943 377.87 88.9181 377.313C89.7531 376.746 90.7776 376.462 91.9908 376.462C93.5271 376.462 94.752 376.851 95.6646 377.63C96.5889 378.41 97.0506 379.456 97.0506 380.77V392.075H97.9857C98.7759 392.075 99.3771 392.298 99.7893 392.743C100.212 393.178 100.424 393.751 100.424 394.463C100.424 395.176 100.212 395.749 99.7893 396.184C99.3663 396.618 98.7651 396.834 97.9857 396.834H97.0506V398.404C97.0506 399.351 96.7833 400.074 96.2487 400.575C95.7258 401.076 95.0301 401.326 94.1616 401.326ZM91.4229 392.292V381.071H91.3059C89.7475 383.319 88.4449 385.278 87.3985 386.949C86.3631 388.618 85.3834 390.345 84.4594 392.126V392.292H91.4229ZM120.179 398.138C118.342 400.408 115.826 401.544 112.631 401.544C109.436 401.544 106.915 400.414 105.066 398.154C103.218 395.883 102.294 392.783 102.294 388.852C102.294 384.923 103.218 381.839 105.066 379.601C106.925 377.352 109.447 376.228 112.631 376.228C115.815 376.228 118.331 377.347 120.179 379.584C122.027 381.811 122.951 384.895 122.951 388.836C122.951 392.766 122.027 395.866 120.179 398.138ZM112.631 396.768C113.934 396.768 114.941 396.1 115.654 394.764C116.366 393.417 116.722 391.446 116.722 388.852C116.722 386.259 116.36 384.305 115.637 382.991C114.925 381.666 113.922 381.003 112.631 381.003C111.34 381.003 110.332 381.666 109.608 382.991C108.885 384.315 108.523 386.264 108.523 388.836C108.523 391.43 108.885 393.4 109.608 394.747C110.332 396.095 111.34 396.768 112.631 396.768Z"
              fill="#F2F2F7"/>
        <path d="M512.888 400.508C512.331 401.054 511.597 401.326 510.684 401.326C509.771 401.326 509.031 401.054 508.463 400.508C507.906 399.952 507.628 399.217 507.628 398.304V382.256H507.511L504.506 384.343C504.015 384.689 503.515 384.862 503.003 384.862C502.412 384.862 501.917 384.661 501.516 384.261C501.126 383.859 500.932 383.352 500.932 382.74C500.932 381.861 501.338 381.138 502.15 380.57L506.71 377.464C507.299 377.062 507.862 376.796 508.396 376.662C508.942 376.529 509.554 376.462 510.233 376.462C511.324 376.462 512.176 376.768 512.788 377.38C513.411 377.992 513.724 378.827 513.724 379.885V398.304C513.724 399.217 513.445 399.952 512.888 400.508ZM528.836 401.544C525.775 401.544 523.292 400.887 521.388 399.573C519.484 398.26 518.532 396.539 518.532 394.413C518.532 392.821 519.072 391.479 520.152 390.389C521.244 389.298 522.657 388.602 524.394 388.302V388.185C522.903 387.851 521.694 387.199 520.771 386.231C519.857 385.262 519.401 384.121 519.401 382.807C519.401 380.893 520.281 379.323 522.04 378.098C523.798 376.863 526.064 376.244 528.836 376.244C531.619 376.244 533.884 376.863 535.632 378.098C537.392 379.323 538.271 380.898 538.271 382.824C538.271 384.126 537.815 385.262 536.902 386.231C535.989 387.199 534.793 387.851 533.311 388.185V388.302C535.048 388.602 536.457 389.303 537.537 390.406C538.617 391.497 539.156 392.838 539.156 394.43C539.156 396.546 538.199 398.26 536.284 399.573C534.369 400.887 531.886 401.544 528.836 401.544ZM526.398 385.612C527.033 386.169 527.845 386.448 528.836 386.448C529.827 386.448 530.64 386.169 531.274 385.612C531.92 385.045 532.243 384.322 532.243 383.442C532.243 382.551 531.92 381.828 531.274 381.271C530.64 380.715 529.827 380.436 528.836 380.436C527.856 380.436 527.049 380.715 526.415 381.271C525.78 381.828 525.463 382.551 525.463 383.442C525.463 384.322 525.775 385.045 526.398 385.612ZM528.836 397.336C529.983 397.336 530.918 397.018 531.642 396.384C532.365 395.749 532.727 394.942 532.727 393.963C532.727 392.994 532.365 392.203 531.642 391.591C530.918 390.967 529.983 390.656 528.836 390.656C527.701 390.656 526.771 390.967 526.047 391.591C525.324 392.203 524.962 392.994 524.962 393.963C524.962 394.942 525.324 395.749 526.047 396.384C526.771 397.018 527.701 397.336 528.836 397.336ZM559.562 398.138C557.726 400.408 555.21 401.544 552.015 401.544C548.819 401.544 546.298 400.414 544.45 398.154C542.602 395.883 541.678 392.783 541.678 388.852C541.678 384.923 542.602 381.839 544.45 379.601C546.309 377.352 548.831 376.228 552.015 376.228C555.198 376.228 557.715 377.347 559.562 379.584C561.411 381.811 562.334 384.895 562.334 388.836C562.334 392.766 561.411 395.866 559.562 398.138ZM552.015 396.768C553.317 396.768 554.324 396.1 555.037 394.764C555.75 393.417 556.106 391.446 556.106 388.852C556.106 386.259 555.744 384.305 555.02 382.991C554.308 381.666 553.306 381.003 552.015 381.003C550.723 381.003 549.716 381.666 548.992 382.991C548.268 384.315 547.906 386.264 547.906 388.836C547.906 391.43 548.268 393.4 548.992 394.747C549.716 396.095 550.723 396.768 552.015 396.768Z"
              fill="#F2F2F7"/>
        <path d="M90.0198 273.744C85.901 273.744 82.9064 271.985 81.036 268.466C79.9896 266.519 79.4663 264.092 79.4663 261.186C79.4663 257.234 80.4015 254.122 82.2718 251.851C84.1421 249.569 86.6915 248.428 89.92 248.428C92.0574 248.428 93.8664 248.806 95.3469 249.563C96.8391 250.321 97.8525 251.284 98.3862 252.452C98.5869 252.909 98.6868 253.348 98.6868 253.771C98.6868 254.451 98.4645 255.012 98.019 255.458C97.5852 255.903 96.9786 256.126 96.1992 256.126C95.6421 256.126 95.1633 256.02 94.7628 255.809C94.3731 255.597 93.9393 255.252 93.4605 254.774C92.9259 254.194 92.3805 253.777 91.8234 253.521C91.278 253.265 90.6435 253.137 89.92 253.137C88.3949 253.137 87.2426 253.832 86.4633 255.225C85.684 256.604 85.3055 258.469 85.3277 260.818V261.086H85.4446C85.9234 259.916 86.7249 258.988 87.8494 258.297C88.9849 257.595 90.3429 257.245 91.9242 257.245C94.2507 257.245 96.1263 257.974 97.5519 259.432C98.9874 260.891 99.7056 262.756 99.7056 265.027C99.7056 266.708 99.288 268.216 98.4537 269.552C97.6185 270.877 96.4665 271.907 94.9968 272.642C93.5271 273.376 91.8684 273.744 90.0198 273.744ZM89.9367 269.034C91.017 269.034 91.9242 268.678 92.6586 267.966C93.4047 267.242 93.7827 266.351 93.7944 265.294C93.8052 264.203 93.4434 263.307 92.709 262.606C91.9854 261.893 91.0782 261.536 89.9869 261.536C88.8736 261.536 87.944 261.882 87.198 262.572C86.4521 263.263 86.0792 264.142 86.0792 265.21C86.0792 266.29 86.4466 267.197 87.1814 267.933C87.9272 268.667 88.8457 269.034 89.9367 269.034ZM120.179 270.338C118.342 272.608 115.826 273.744 112.631 273.744C109.436 273.744 106.915 272.614 105.066 270.354C103.218 268.083 102.294 264.983 102.294 261.052C102.294 257.123 103.218 254.039 105.066 251.801C106.925 249.552 109.447 248.428 112.631 248.428C115.815 248.428 118.331 249.547 120.179 251.784C122.027 254.011 122.951 257.095 122.951 261.036C122.951 264.965 122.027 268.066 120.179 270.338ZM112.631 268.968C113.934 268.968 114.941 268.3 115.654 266.963C116.366 265.617 116.722 263.646 116.722 261.052C116.722 258.458 116.36 256.505 115.637 255.191C114.925 253.866 113.922 253.203 112.631 253.203C111.34 253.203 110.332 253.866 109.608 255.191C108.885 256.515 108.523 258.464 108.523 261.036C108.523 263.63 108.885 265.6 109.608 266.947C110.332 268.295 111.34 268.968 112.631 268.968Z"
              fill="#F2F2F7"/>
        <path d="M513.072 272.708C512.516 273.254 511.78 273.526 510.868 273.526C509.955 273.526 509.215 273.254 508.647 272.708C508.091 272.152 507.811 271.417 507.811 270.504V254.456H507.694L504.689 256.543C504.199 256.889 503.699 257.062 503.186 257.062C502.596 257.062 502.101 256.861 501.7 256.46C501.31 256.059 501.115 255.552 501.115 254.94C501.115 254.061 501.521 253.337 502.334 252.77L506.894 249.664C507.483 249.262 508.045 248.996 508.58 248.862C509.125 248.729 509.737 248.662 510.417 248.662C511.508 248.662 512.359 248.968 512.972 249.58C513.595 250.192 513.907 251.027 513.907 252.085V270.504C513.907 271.417 513.629 272.152 513.072 272.708ZM529.22 273.744C525.101 273.744 522.106 271.985 520.236 268.466C519.189 266.519 518.666 264.092 518.666 261.186C518.666 257.234 519.602 254.122 521.472 251.851C523.342 249.569 525.892 248.428 529.12 248.428C531.257 248.428 533.066 248.806 534.547 249.563C536.039 250.321 537.052 251.284 537.586 252.452C537.787 252.909 537.887 253.348 537.887 253.771C537.887 254.451 537.664 255.012 537.219 255.458C536.785 255.903 536.179 256.126 535.399 256.126C534.842 256.126 534.363 256.02 533.963 255.809C533.573 255.597 533.139 255.252 532.66 254.774C532.126 254.194 531.58 253.777 531.023 253.521C530.478 253.265 529.844 253.137 529.12 253.137C527.594 253.137 526.442 253.832 525.663 255.225C524.884 256.604 524.506 258.469 524.528 260.818V261.086H524.644C525.123 259.916 525.925 258.988 527.049 258.297C528.185 257.595 529.543 257.245 531.124 257.245C533.451 257.245 535.326 257.974 536.752 259.432C538.187 260.891 538.906 262.756 538.906 265.027C538.906 266.708 538.488 268.216 537.654 269.552C536.819 270.877 535.666 271.907 534.197 272.642C532.727 273.376 531.068 273.744 529.22 273.744ZM529.137 269.034C530.217 269.034 531.124 268.678 531.859 267.966C532.605 267.242 532.983 266.351 532.994 265.294C533.005 264.203 532.643 263.307 531.909 262.606C531.185 261.893 530.278 261.536 529.186 261.536C528.073 261.536 527.144 261.882 526.398 262.572C525.652 263.263 525.28 264.142 525.28 265.21C525.28 266.29 525.647 267.197 526.381 267.933C527.127 268.667 528.045 269.034 529.137 269.034ZM559.379 270.338C557.542 272.608 555.026 273.744 551.831 273.744C548.635 273.744 546.115 272.614 544.266 270.354C542.418 268.083 541.494 264.983 541.494 261.052C541.494 257.123 542.418 254.039 544.266 251.801C546.125 249.552 548.647 248.428 551.831 248.428C555.015 248.428 557.531 249.547 559.379 251.784C561.227 254.011 562.151 257.095 562.151 261.036C562.151 264.965 561.227 268.066 559.379 270.338ZM551.831 268.968C553.134 268.968 554.141 268.3 554.854 266.963C555.566 265.617 555.922 263.646 555.922 261.052C555.922 258.458 555.56 256.505 554.836 255.191C554.125 253.866 553.122 253.203 551.831 253.203C550.54 253.203 549.532 253.866 548.808 255.191C548.085 256.515 547.723 258.464 547.723 261.036C547.723 263.63 548.085 265.6 548.808 266.947C549.532 268.295 550.54 268.968 551.831 268.968Z"
              fill="#F2F2F7"/>
        <path d="M149.936 168.444C146.875 168.444 144.392 167.787 142.488 166.473C140.585 165.159 139.632 163.439 139.632 161.313C139.632 159.721 140.172 158.379 141.252 157.289C142.344 156.198 143.757 155.502 145.494 155.201V155.084C144.003 154.751 142.794 154.099 141.871 153.131C140.957 152.162 140.501 151.021 140.501 149.707C140.501 147.793 141.381 146.222 143.14 144.998C144.898 143.762 147.164 143.144 149.936 143.144C152.719 143.144 154.985 143.762 156.732 144.998C158.492 146.222 159.371 147.798 159.371 149.724C159.371 151.026 158.915 152.162 158.002 153.131C157.089 154.099 155.893 154.751 154.411 155.084V155.201C156.148 155.502 157.557 156.203 158.637 157.306C159.717 158.396 160.256 159.737 160.256 161.33C160.256 163.445 159.299 165.159 157.384 166.473C155.469 167.787 152.987 168.444 149.936 168.444ZM147.498 152.512C148.133 153.069 148.946 153.347 149.936 153.347C150.927 153.347 151.74 153.069 152.375 152.512C153.02 151.945 153.343 151.221 153.343 150.341C153.343 149.451 153.02 148.728 152.375 148.171C151.74 147.614 150.927 147.335 149.936 147.335C148.956 147.335 148.149 147.614 147.515 148.171C146.88 148.728 146.563 149.451 146.563 150.341C146.563 151.221 146.875 151.945 147.498 152.512ZM149.936 164.236C151.083 164.236 152.018 163.918 152.742 163.283C153.465 162.649 153.827 161.842 153.827 160.862C153.827 159.894 153.465 159.103 152.742 158.491C152.018 157.867 151.083 157.556 149.936 157.556C148.801 157.556 147.871 157.867 147.147 158.491C146.424 159.103 146.062 159.894 146.062 160.862C146.062 161.842 146.424 162.649 147.147 163.283C147.871 163.918 148.801 164.236 149.936 164.236ZM180.662 165.037C178.826 167.308 176.31 168.444 173.115 168.444C169.919 168.444 167.398 167.314 165.55 165.054C163.702 162.783 162.778 159.683 162.778 155.752C162.778 151.822 163.702 148.739 165.55 146.501C167.409 144.252 169.931 143.128 173.115 143.128C176.298 143.128 178.815 144.247 180.662 146.484C182.511 148.711 183.434 151.795 183.434 155.735C183.434 159.665 182.511 162.766 180.662 165.037ZM173.115 163.668C174.417 163.668 175.424 163 176.137 161.663C176.85 160.317 177.206 158.346 177.206 155.752C177.206 153.158 176.844 151.205 176.12 149.891C175.408 148.566 174.407 147.903 173.115 147.903C171.824 147.903 170.816 148.566 170.092 149.891C169.368 151.215 169.007 153.164 169.007 155.735C169.007 158.33 169.368 160.3 170.092 161.647C170.816 162.995 171.824 163.668 173.115 163.668Z"
              fill="#F2F2F7"/>
        <path d="M452.772 167.408C452.216 167.954 451.481 168.226 450.568 168.226C449.655 168.226 448.915 167.954 448.347 167.408C447.791 166.852 447.512 166.117 447.512 165.204V149.156H447.395L444.389 151.243C443.899 151.589 443.399 151.761 442.886 151.761C442.296 151.761 441.801 151.561 441.4 151.16C441.01 150.759 440.816 150.252 440.816 149.64C440.816 148.761 441.221 148.037 442.034 147.47L446.594 144.364C447.183 143.962 447.746 143.695 448.28 143.562C448.826 143.429 449.438 143.361 450.117 143.361C451.208 143.361 452.059 143.668 452.672 144.28C453.295 144.892 453.607 145.727 453.607 146.785V165.204C453.607 166.117 453.329 166.852 452.772 167.408ZM473.062 168.226C472.182 168.226 471.475 167.976 470.941 167.475C470.417 166.974 470.156 166.251 470.156 165.304V163.734H461.94C460.838 163.734 459.941 163.418 459.251 162.783C458.573 162.148 458.232 161.324 458.232 160.311C458.232 159.197 458.639 157.923 459.452 156.487C460.832 153.994 462.747 150.899 465.197 147.202C466.12 145.766 466.994 144.77 467.818 144.213C468.653 143.645 469.678 143.361 470.891 143.361C472.427 143.361 473.652 143.751 474.565 144.53C475.489 145.31 475.951 146.356 475.951 147.67V158.975H476.886C477.676 158.975 478.277 159.197 478.689 159.643C479.112 160.078 479.324 160.651 479.324 161.363C479.324 162.076 479.112 162.649 478.689 163.083C478.266 163.517 477.665 163.734 476.886 163.734H475.951V165.304C475.951 166.251 475.683 166.974 475.149 167.475C474.626 167.976 473.93 168.226 473.062 168.226ZM470.323 159.192V147.97H470.206C468.647 150.219 467.345 152.178 466.298 153.849C465.263 155.518 464.283 157.244 463.36 159.026V159.192H470.323ZM499.079 165.037C497.242 167.308 494.726 168.444 491.531 168.444C488.336 168.444 485.815 167.314 483.966 165.054C482.118 162.783 481.194 159.683 481.194 155.752C481.194 151.822 482.118 148.739 483.966 146.501C485.825 144.252 488.347 143.128 491.531 143.128C494.715 143.128 497.231 144.247 499.079 146.484C500.927 148.711 501.851 151.795 501.851 155.735C501.851 159.665 500.927 162.766 499.079 165.037ZM491.531 163.668C492.834 163.668 493.841 163 494.554 161.663C495.266 160.317 495.622 158.346 495.622 155.752C495.622 153.158 495.26 151.205 494.537 149.891C493.825 148.566 492.822 147.903 491.531 147.903C490.24 147.903 489.232 148.566 488.508 149.891C487.785 151.215 487.423 153.164 487.423 155.735C487.423 158.33 487.785 160.3 488.508 161.647C489.232 162.995 490.24 163.668 491.531 163.668Z"
              fill="#F2F2F7"/>
        <path d="M241.005 107.108C240.449 107.654 239.713 107.926 238.801 107.926C237.888 107.926 237.147 107.654 236.579 107.108C236.023 106.552 235.744 105.817 235.744 104.904V88.8561H235.628L232.622 90.9433C232.132 91.2889 231.631 91.4608 231.119 91.4608C230.529 91.4608 230.034 91.261 229.632 90.8596C229.244 90.4591 229.048 89.9527 229.048 89.3404C229.048 88.4609 229.455 87.7372 230.268 87.1695L234.826 84.0634C235.417 83.6627 235.978 83.3954 236.513 83.2619C237.058 83.1282 237.67 83.0615 238.35 83.0615C239.441 83.0615 240.293 83.3676 240.905 83.9799C241.529 84.5923 241.84 85.4272 241.84 86.4848V104.904C241.84 105.817 241.562 106.552 241.005 107.108ZM264.534 104.737C262.697 107.008 260.181 108.144 256.986 108.144C253.791 108.144 251.269 107.014 249.422 104.754C247.573 102.483 246.65 99.3826 246.65 95.4523C246.65 91.522 247.573 88.4386 249.422 86.2009C251.281 83.9521 253.802 82.8276 256.986 82.8276C260.17 82.8276 262.686 83.9465 264.534 86.1842C266.382 88.4108 267.306 91.495 267.306 95.4352C267.306 99.3655 266.382 102.466 264.534 104.737ZM256.986 103.368C258.288 103.368 259.296 102.7 260.008 101.363C260.721 100.017 261.077 98.0461 261.077 95.4523C261.077 92.8585 260.716 90.9046 259.992 89.5909C259.279 88.2661 258.278 87.6037 256.986 87.6037C255.695 87.6037 254.687 88.2661 253.964 89.5909C253.24 90.9154 252.878 92.8639 252.878 95.4352C252.878 98.0299 253.24 100 253.964 101.347C254.687 102.695 255.695 103.368 256.986 103.368ZM287.846 104.737C286.009 107.008 283.494 108.144 280.298 108.144C277.103 108.144 274.581 107.014 272.733 104.754C270.886 102.483 269.961 99.3826 269.961 95.4523C269.961 91.522 270.886 88.4386 272.733 86.2009C274.593 83.9521 277.115 82.8276 280.298 82.8276C283.482 82.8276 285.998 83.9465 287.846 86.1842C289.694 88.4108 290.618 91.495 290.618 95.4352C290.618 99.3655 289.694 102.466 287.846 104.737ZM280.298 103.368C281.601 103.368 282.608 102.7 283.321 101.363C284.033 100.017 284.389 98.0461 284.389 95.4523C284.389 92.8585 284.027 90.9046 283.304 89.5909C282.592 88.2661 281.589 87.6037 280.298 87.6037C279.006 87.6037 277.999 88.2661 277.276 89.5909C276.552 90.9154 276.19 92.8639 276.19 95.4352C276.19 98.0299 276.552 100 277.276 101.347C277.999 102.695 279.006 103.368 280.298 103.368Z"
              fill="#F2F2F7"/>
        <path d="M364.474 107.108C363.917 107.654 363.182 107.926 362.269 107.926C361.356 107.926 360.616 107.654 360.049 107.108C359.491 106.552 359.213 105.817 359.213 104.904V88.8561H359.096L356.09 90.9433C355.601 91.2889 355.099 91.4608 354.587 91.4608C353.998 91.4608 353.502 91.261 353.101 90.8596C352.712 90.4591 352.517 89.9527 352.517 89.3404C352.517 88.4609 352.923 87.7372 353.736 87.1695L358.294 84.0634C358.885 83.6627 359.447 83.3954 359.981 83.2619C360.527 83.1282 361.139 83.0615 361.819 83.0615C362.91 83.0615 363.761 83.3676 364.373 83.9799C364.997 84.5923 365.308 85.4272 365.308 86.4848V104.904C365.308 105.817 365.03 106.552 364.474 107.108ZM373.224 107.543C372.278 107.543 371.56 107.303 371.07 106.825C370.591 106.346 370.352 105.711 370.352 104.92C370.352 104.353 370.48 103.841 370.736 103.384C370.992 102.928 371.426 102.438 372.038 101.915L378.919 95.6692C380.332 94.3777 381.284 93.376 381.774 92.6632C382.264 91.9513 382.509 91.2052 382.509 90.4258C382.509 89.5575 382.203 88.8449 381.59 88.2883C380.989 87.7316 380.209 87.4534 379.253 87.4534C378.473 87.4534 377.794 87.6482 377.215 88.0378C376.647 88.4164 376.141 89.012 375.695 89.8247C375.306 90.4258 374.905 90.8542 374.494 91.1107C374.092 91.3663 373.585 91.495 372.973 91.495C372.183 91.495 371.56 91.2826 371.103 90.8596C370.658 90.4258 370.435 89.8302 370.435 89.0732C370.435 88.5722 370.519 88.1269 370.686 87.7372C371.231 86.3011 372.272 85.1266 373.809 84.2137C375.356 83.3009 377.198 82.8444 379.336 82.8444C382.074 82.8444 384.273 83.5068 385.932 84.8316C387.602 86.1564 388.437 87.8875 388.437 90.0253C388.437 90.6373 388.364 91.216 388.219 91.7614C388.086 92.296 387.897 92.8027 387.652 93.2815C387.407 93.7486 387.045 94.267 386.567 94.834C386.099 95.3911 385.604 95.9257 385.08 96.4378C384.568 96.9499 383.89 97.5844 383.044 98.3413L378.25 102.716V102.833H386.583C387.352 102.833 387.953 103.045 388.387 103.468C388.821 103.891 389.038 104.464 389.038 105.188C389.038 105.9 388.821 106.474 388.387 106.907C387.953 107.331 387.352 107.543 386.583 107.543H373.224ZM409.178 104.737C407.341 107.008 404.824 108.144 401.629 108.144C398.434 108.144 395.913 107.014 394.065 104.754C392.216 102.483 391.293 99.3826 391.293 95.4523C391.293 91.522 392.216 88.4386 394.065 86.2009C395.923 83.9521 398.445 82.8276 401.629 82.8276C404.814 82.8276 407.329 83.9465 409.178 86.1842C411.025 88.4108 411.95 91.495 411.95 95.4352C411.95 99.3655 411.025 102.466 409.178 104.737ZM401.629 103.368C402.932 103.368 403.94 102.7 404.652 101.363C405.364 100.017 405.721 98.0461 405.721 95.4523C405.721 92.8585 405.359 90.9046 404.635 89.5909C403.923 88.2661 402.921 87.6037 401.629 87.6037C400.338 87.6037 399.331 88.2661 398.606 89.5909C397.883 90.9154 397.521 92.8639 397.521 95.4352C397.521 98.0299 397.883 100 398.606 101.347C399.331 102.695 400.338 103.368 401.629 103.368Z"
              fill="#F2F2F7"/>
        <path d="M429.968 516.143C429.022 516.143 428.304 515.903 427.814 515.425C427.335 514.946 427.096 514.311 427.096 513.521C427.096 512.953 427.224 512.441 427.48 511.985C427.736 511.528 428.17 511.038 428.783 510.515L435.662 504.269C437.076 502.978 438.028 501.976 438.518 501.263C439.007 500.551 439.253 499.805 439.253 499.026C439.253 498.157 438.946 497.445 438.334 496.888C437.733 496.332 436.954 496.053 435.996 496.053C435.218 496.053 434.538 496.248 433.959 496.638C433.391 497.016 432.885 497.612 432.439 498.425C432.05 499.026 431.649 499.454 431.237 499.711C430.836 499.966 430.33 500.095 429.718 500.095C428.927 500.095 428.304 499.883 427.847 499.46C427.402 499.026 427.18 498.43 427.18 497.673C427.18 497.173 427.262 496.727 427.43 496.337C427.975 494.901 429.017 493.727 430.553 492.814C432.1 491.9 433.942 491.444 436.08 491.444C438.818 491.444 441.017 492.107 442.676 493.431C444.346 494.756 445.181 496.488 445.181 498.625C445.181 499.237 445.109 499.816 444.964 500.362C444.83 500.896 444.641 501.403 444.396 501.881C444.151 502.349 443.789 502.867 443.31 503.435C442.843 503.991 442.347 504.526 441.824 505.038C441.312 505.55 440.633 506.184 439.787 506.941L434.994 511.316V511.433H443.327C444.095 511.433 444.696 511.645 445.131 512.068C445.565 512.491 445.782 513.064 445.782 513.788C445.782 514.5 445.565 515.074 445.131 515.508C444.696 515.931 444.095 516.143 443.327 516.143H429.968ZM465.921 513.338C464.084 515.608 461.569 516.744 458.374 516.744C455.179 516.744 452.657 515.614 450.808 513.354C448.961 511.083 448.036 507.983 448.036 504.052C448.036 500.123 448.961 497.039 450.808 494.801C452.668 492.552 455.189 491.428 458.374 491.428C461.557 491.428 464.073 492.547 465.921 494.784C467.77 497.011 468.694 500.095 468.694 504.036C468.694 507.965 467.77 511.066 465.921 513.338ZM458.374 511.968C459.676 511.968 460.683 511.3 461.396 509.963C462.109 508.617 462.465 506.646 462.465 504.052C462.465 501.458 462.103 499.505 461.38 498.191C460.667 496.866 459.665 496.203 458.374 496.203C457.082 496.203 456.074 496.866 455.351 498.191C454.627 499.515 454.265 501.464 454.265 504.036C454.265 506.63 454.627 508.6 455.351 509.947C456.074 511.295 457.082 511.968 458.374 511.968ZM489.234 513.338C487.397 515.608 484.88 516.744 481.685 516.744C478.49 516.744 475.969 515.614 474.121 513.354C472.272 511.083 471.349 507.983 471.349 504.052C471.349 500.123 472.272 497.039 474.121 494.801C475.98 492.552 478.501 491.428 481.685 491.428C484.87 491.428 487.385 492.547 489.234 494.784C491.081 497.011 492.006 500.095 492.006 504.036C492.006 507.965 491.081 511.066 489.234 513.338ZM481.685 511.968C482.988 511.968 483.996 511.3 484.708 509.963C485.42 508.617 485.777 506.646 485.777 504.052C485.777 501.458 485.415 499.505 484.691 498.191C483.979 496.866 482.977 496.203 481.685 496.203C480.394 496.203 479.387 496.866 478.663 498.191C477.94 499.515 477.578 501.464 477.578 504.036C477.578 506.63 477.94 508.6 478.663 509.947C479.387 511.295 480.394 511.968 481.685 511.968Z"
              fill="#F2F2F7"/>
        <path d="M297.411 205.942C297.206 206.158 296.916 206.267 296.541 206.267C296.167 206.267 295.873 206.158 295.663 205.942C295.457 205.725 295.355 205.42 295.355 205.028V194.955C295.355 194.416 295.504 193.998 295.803 193.699C296.107 193.394 296.529 193.242 297.068 193.242C297.531 193.242 297.901 193.347 298.176 193.558C298.457 193.769 298.695 194.12 298.888 194.612L302.035 202.408H302.105L305.242 194.612C305.436 194.12 305.673 193.769 305.954 193.558C306.241 193.347 306.617 193.242 307.079 193.242C307.618 193.242 308.038 193.394 308.336 193.699C308.635 193.998 308.785 194.416 308.785 194.955V205.028C308.785 205.42 308.679 205.725 308.468 205.942C308.263 206.158 307.973 206.267 307.597 206.267C307.223 206.267 306.932 206.158 306.728 205.942C306.523 205.725 306.42 205.42 306.42 205.028V197.539H306.35L303.212 205.213C302.995 205.752 302.618 206.021 302.079 206.021C301.528 206.021 301.144 205.754 300.927 205.221L297.789 197.539H297.719V205.028C297.719 205.42 297.617 205.725 297.411 205.942ZM314.996 205.906C314.762 206.147 314.437 206.267 314.021 206.267C313.605 206.267 313.28 206.147 313.045 205.906C312.811 205.661 312.694 205.321 312.694 204.887V194.63C312.694 194.191 312.811 193.851 313.045 193.611C313.28 193.365 313.605 193.242 314.021 193.242C314.437 193.242 314.762 193.365 314.996 193.611C315.231 193.851 315.348 194.191 315.348 194.63V204.887C315.348 205.321 315.231 205.661 314.996 205.906ZM320.584 206.1C320.169 206.1 319.844 205.98 319.609 205.74C319.375 205.493 319.257 205.15 319.257 204.711V194.63C319.257 194.191 319.375 193.851 319.609 193.611C319.844 193.365 320.169 193.242 320.584 193.242C321 193.242 321.326 193.365 321.56 193.611C321.794 193.851 321.912 194.191 321.912 194.63V203.903H326.412C326.775 203.903 327.065 204.002 327.281 204.202C327.505 204.394 327.616 204.662 327.616 205.001C327.616 205.341 327.507 205.61 327.29 205.81C327.074 206.004 326.781 206.1 326.412 206.1H320.584ZM332.158 206.1C331.742 206.1 331.417 205.98 331.182 205.74C330.948 205.493 330.831 205.15 330.831 204.711V194.797C330.831 194.364 330.948 194.026 331.182 193.786C331.417 193.54 331.742 193.417 332.158 193.417H338.188C338.557 193.417 338.849 193.517 339.066 193.716C339.283 193.909 339.392 194.176 339.392 194.516C339.392 194.856 339.28 195.125 339.057 195.324C338.841 195.518 338.55 195.615 338.188 195.615H333.485V198.664H337.959C338.293 198.664 338.559 198.758 338.758 198.946C338.963 199.128 339.066 199.373 339.066 199.684C339.066 200.001 338.963 200.249 338.758 200.431C338.559 200.613 338.293 200.704 337.959 200.704H333.485V203.903H338.188C338.55 203.903 338.841 204.002 339.057 204.202C339.28 204.394 339.392 204.662 339.392 205.001C339.392 205.341 339.283 205.61 339.066 205.81C338.849 206.004 338.557 206.1 338.188 206.1H332.158ZM347.59 206.311C346.325 206.311 345.272 206.088 344.434 205.643C343.597 205.192 343.046 204.603 342.782 203.876C342.688 203.63 342.642 203.393 342.642 203.164C342.642 202.813 342.75 202.531 342.967 202.321C343.184 202.104 343.465 201.995 343.811 201.995C344.086 201.995 344.317 202.057 344.505 202.18C344.698 202.297 344.874 202.494 345.032 202.769C345.231 203.238 345.56 203.589 346.017 203.824C346.479 204.058 347.025 204.175 347.651 204.175C348.36 204.175 348.934 204.023 349.374 203.719C349.819 203.413 350.042 203.026 350.042 202.558C350.042 202.136 349.875 201.799 349.541 201.547C349.207 201.295 348.645 201.087 347.854 200.923L346.509 200.659C343.995 200.162 342.738 198.96 342.738 197.056C342.738 196.294 342.943 195.62 343.354 195.034C343.769 194.443 344.344 193.989 345.076 193.672C345.814 193.356 346.649 193.198 347.581 193.198C348.747 193.198 349.74 193.429 350.561 193.892C351.381 194.355 351.931 194.999 352.213 195.826C352.277 196.007 352.309 196.204 352.309 196.414C352.309 196.731 352.204 196.988 351.994 197.188C351.788 197.381 351.516 197.478 351.176 197.478C350.877 197.478 350.628 197.417 350.428 197.293C350.235 197.17 350.062 196.971 349.91 196.696C349.511 195.793 348.736 195.342 347.581 195.342C346.925 195.342 346.397 195.485 345.999 195.772C345.601 196.054 345.401 196.426 345.401 196.889C345.401 197.282 345.566 197.604 345.893 197.856C346.227 198.108 346.766 198.307 347.511 198.454L348.846 198.726C350.188 198.995 351.164 199.411 351.773 199.974C352.389 200.536 352.697 201.301 352.697 202.268C352.697 203.51 352.239 204.494 351.325 205.221C350.411 205.948 349.166 206.311 347.59 206.311Z"
              fill="#F2F2F7"/>
        <path d="M295.663 205.942L295.335 206.251L295.339 206.256L295.663 205.942ZM295.803 193.699L296.121 194.017L295.803 193.699ZM298.176 193.558L297.903 193.915L297.906 193.918L298.176 193.558ZM298.888 194.612L298.469 194.777L298.471 194.781L298.888 194.612ZM302.035 202.408L301.617 202.577L301.73 202.858H302.035V202.408ZM302.105 202.408V202.858H302.409L302.522 202.576L302.105 202.408ZM305.242 194.612L305.66 194.781L305.662 194.777L305.242 194.612ZM305.954 193.558L305.688 193.195L305.684 193.198L305.954 193.558ZM308.336 193.699L308.015 194.014L308.018 194.017L308.336 193.699ZM308.468 205.942L308.146 205.628L308.141 205.633L308.468 205.942ZM306.42 197.539H306.87V197.089H306.42V197.539ZM306.35 197.539V197.089H306.048L305.933 197.369L306.35 197.539ZM303.212 205.213L302.796 205.042L302.794 205.044L303.212 205.213ZM300.927 205.221L301.343 205.051V205.051L300.927 205.221ZM297.789 197.539L298.206 197.369L298.092 197.089H297.789V197.539ZM297.719 197.539V197.089H297.269V197.539H297.719ZM297.085 205.633C296.985 205.737 296.826 205.817 296.541 205.817V206.717C297.006 206.717 297.427 206.58 297.738 206.251L297.085 205.633ZM296.541 205.817C296.257 205.817 296.092 205.738 295.985 205.628L295.339 206.256C295.654 206.58 296.076 206.717 296.541 206.717V205.817ZM295.989 205.633C295.886 205.523 295.805 205.342 295.805 205.028H294.905C294.905 205.498 295.029 205.927 295.335 206.251L295.989 205.633ZM295.805 205.028V194.955H294.905V205.028H295.805ZM295.805 194.955C295.805 194.502 295.928 194.21 296.121 194.017L295.484 193.38C295.08 193.785 294.905 194.332 294.905 194.955H295.805ZM296.121 194.017C296.321 193.817 296.617 193.692 297.068 193.692V192.792C296.442 192.792 295.894 192.972 295.484 193.38L296.121 194.017ZM297.068 193.692C297.465 193.692 297.728 193.782 297.903 193.915L298.45 193.201C298.073 192.912 297.598 192.792 297.068 192.792V193.692ZM297.906 193.918C298.095 194.06 298.291 194.326 298.469 194.777L299.307 194.449C299.097 193.915 298.82 193.478 298.446 193.198L297.906 193.918ZM298.471 194.781L301.617 202.577L302.451 202.24L299.305 194.444L298.471 194.781ZM302.035 202.858H302.105V201.958H302.035V202.858ZM302.522 202.576L305.66 194.781L304.825 194.445L301.687 202.241L302.522 202.576ZM305.662 194.777C305.838 194.326 306.035 194.06 306.224 193.918L305.684 193.198C305.311 193.478 305.033 193.915 304.824 194.449L305.662 194.777ZM306.22 193.92C306.41 193.782 306.684 193.692 307.079 193.692V192.792C306.549 192.792 306.073 192.913 305.688 193.196L306.22 193.92ZM307.079 193.692C307.531 193.692 307.822 193.817 308.015 194.014L308.658 193.384C308.253 192.971 307.705 192.792 307.079 192.792V193.692ZM308.018 194.017C308.21 194.21 308.335 194.502 308.335 194.955H309.235C309.235 194.332 309.059 193.785 308.654 193.38L308.018 194.017ZM308.335 194.955V205.028H309.235V194.955H308.335ZM308.335 205.028C308.335 205.339 308.253 205.518 308.146 205.628L308.791 206.256C309.105 205.932 309.235 205.501 309.235 205.028H308.335ZM308.141 205.633C308.042 205.737 307.883 205.817 307.597 205.817V206.717C308.063 206.717 308.484 206.58 308.794 206.251L308.141 205.633ZM307.597 205.817C307.313 205.817 307.154 205.737 307.055 205.633L306.4 206.251C306.712 206.58 307.133 206.717 307.597 206.717V205.817ZM307.055 205.633C306.951 205.523 306.87 205.342 306.87 205.028H305.97C305.97 205.498 306.094 205.927 306.4 206.251L307.055 205.633ZM306.87 205.028V197.539H305.97V205.028H306.87ZM306.42 197.089H306.35V197.989H306.42V197.089ZM305.933 197.369L302.796 205.042L303.628 205.383L306.766 197.71L305.933 197.369ZM302.794 205.044C302.71 205.254 302.608 205.379 302.504 205.452C302.404 205.524 302.269 205.571 302.079 205.571V206.471C302.426 206.471 302.75 206.383 303.027 206.185C303.302 205.989 303.497 205.709 303.629 205.38L302.794 205.044ZM302.079 205.571C301.878 205.571 301.738 205.523 301.634 205.451C301.529 205.378 301.427 205.256 301.343 205.051L300.51 205.391C300.644 205.719 300.842 205.997 301.121 206.191C301.401 206.385 301.728 206.471 302.079 206.471V205.571ZM301.343 205.051L298.206 197.369L297.373 197.709L300.51 205.392L301.343 205.051ZM297.789 197.089H297.719V197.989H297.789V197.089ZM297.269 197.539V205.028H298.169V197.539H297.269ZM297.269 205.028C297.269 205.342 297.188 205.523 297.085 205.633L297.738 206.251C298.045 205.927 298.169 205.498 298.169 205.028H297.269ZM314.996 205.906L315.319 206.221L315.322 206.217L314.996 205.906ZM313.045 205.906L312.719 206.217L312.723 206.221L313.045 205.906ZM313.045 193.611L313.367 193.925L313.371 193.921L313.045 193.611ZM314.996 193.611L314.671 193.921L314.674 193.925L314.996 193.611ZM314.674 205.592C314.544 205.726 314.347 205.817 314.021 205.817V206.717C314.527 206.717 314.98 206.568 315.319 206.221L314.674 205.592ZM314.021 205.817C313.695 205.817 313.498 205.726 313.367 205.592L312.723 206.221C313.061 206.568 313.514 206.717 314.021 206.717V205.817ZM313.371 205.596C313.237 205.456 313.144 205.239 313.144 204.887H312.244C312.244 205.403 312.385 205.866 312.719 206.217L313.371 205.596ZM313.144 204.887V194.63H312.244V204.887H313.144ZM313.144 194.63C313.144 194.27 313.238 194.058 313.367 193.925L312.723 193.297C312.384 193.644 312.244 194.111 312.244 194.63H313.144ZM313.371 193.921C313.502 193.783 313.699 193.692 314.021 193.692V192.792C313.511 192.792 313.057 192.946 312.719 193.3L313.371 193.921ZM314.021 193.692C314.343 193.692 314.539 193.783 314.671 193.921L315.322 193.3C314.985 192.946 314.53 192.792 314.021 192.792V193.692ZM314.674 193.925C314.804 194.058 314.898 194.27 314.898 194.63H315.798C315.798 194.111 315.658 193.644 315.319 193.297L314.674 193.925ZM314.898 194.63V204.887H315.798V194.63H314.898ZM314.898 204.887C314.898 205.239 314.805 205.456 314.671 205.596L315.322 206.217C315.657 205.866 315.798 205.403 315.798 204.887H314.898ZM319.609 205.74L319.283 206.05L319.287 206.054L319.609 205.74ZM319.609 193.611L319.931 193.925L319.935 193.921L319.609 193.611ZM321.56 193.611L321.234 193.921L321.238 193.925L321.56 193.611ZM321.912 203.903H321.462V204.353H321.912V203.903ZM327.281 204.202L326.977 204.533L326.987 204.541L327.281 204.202ZM327.29 205.81L327.59 206.146L327.595 206.141L327.29 205.81ZM320.584 205.65C320.259 205.65 320.062 205.559 319.931 205.425L319.287 206.054C319.625 206.401 320.078 206.55 320.584 206.55V205.65ZM319.935 205.429C319.801 205.289 319.707 205.07 319.707 204.711H318.807C318.807 205.231 318.947 205.698 319.283 206.05L319.935 205.429ZM319.707 204.711V194.63H318.807V204.711H319.707ZM319.707 194.63C319.707 194.27 319.801 194.058 319.931 193.925L319.287 193.297C318.947 193.644 318.807 194.111 318.807 194.63H319.707ZM319.935 193.921C320.066 193.783 320.262 193.692 320.584 193.692V192.792C320.075 192.792 319.621 192.946 319.283 193.3L319.935 193.921ZM320.584 193.692C320.907 193.692 321.103 193.783 321.234 193.921L321.886 193.3C321.548 192.946 321.094 192.792 320.584 192.792V193.692ZM321.238 193.925C321.367 194.058 321.462 194.27 321.462 194.63H322.362C322.362 194.111 322.222 193.644 321.882 193.297L321.238 193.925ZM321.462 194.63V203.903H322.362V194.63H321.462ZM321.912 204.353H326.412V203.453H321.912V204.353ZM326.412 204.353C326.69 204.353 326.862 204.427 326.977 204.533L327.586 203.87C327.268 203.578 326.86 203.453 326.412 203.453V204.353ZM326.987 204.541C327.095 204.636 327.166 204.77 327.166 205.001H328.066C328.066 204.553 327.913 204.154 327.577 203.862L326.987 204.541ZM327.166 205.001C327.166 205.237 327.096 205.378 326.986 205.479L327.595 206.141C327.919 205.843 328.066 205.446 328.066 205.001H327.166ZM326.991 205.474C326.877 205.575 326.701 205.65 326.412 205.65V206.55C326.86 206.55 327.271 206.431 327.59 206.146L326.991 205.474ZM326.412 205.65H320.584V206.55H326.412V205.65ZM331.182 205.74L330.856 206.05L330.861 206.054L331.182 205.74ZM331.182 193.786L331.504 194.101L331.509 194.097L331.182 193.786ZM339.066 193.716L338.762 194.047L338.766 194.052L339.066 193.716ZM339.057 195.324L339.357 195.66H339.358L339.057 195.324ZM333.485 195.615V195.165H333.035V195.615H333.485ZM333.485 198.664H333.035V199.114H333.485V198.664ZM338.758 198.946L338.45 199.273L338.455 199.278L338.46 199.282L338.758 198.946ZM338.758 200.431L338.46 200.094L338.456 200.099L338.758 200.431ZM333.485 200.704V200.254H333.035V200.704H333.485ZM333.485 203.903H333.035V204.353H333.485V203.903ZM339.057 204.202L338.753 204.533L338.763 204.541L339.057 204.202ZM339.066 205.81L339.366 206.146L339.371 206.141L339.066 205.81ZM332.158 205.65C331.833 205.65 331.635 205.559 331.504 205.425L330.861 206.054C331.199 206.401 331.652 206.55 332.158 206.55V205.65ZM331.509 205.429C331.375 205.289 331.281 205.07 331.281 204.711H330.381C330.381 205.231 330.521 205.698 330.856 206.05L331.509 205.429ZM331.281 204.711V194.797H330.381V204.711H331.281ZM331.281 194.797C331.281 194.445 331.374 194.234 331.504 194.101L330.861 193.472C330.522 193.819 330.381 194.282 330.381 194.797H331.281ZM331.509 194.097C331.639 193.959 331.835 193.867 332.158 193.867V192.967C331.648 192.967 331.195 193.121 330.856 193.477L331.509 194.097ZM332.158 193.867H338.188V192.967H332.158V193.867ZM338.188 193.867C338.474 193.867 338.647 193.943 338.762 194.047L339.371 193.385C339.052 193.091 338.639 192.967 338.188 192.967V193.867ZM338.766 194.052C338.872 194.145 338.942 194.28 338.942 194.516H339.842C339.842 194.071 339.695 193.674 339.366 193.38L338.766 194.052ZM338.942 194.516C338.942 194.747 338.871 194.888 338.757 194.989L339.358 195.66C339.689 195.363 339.842 194.964 339.842 194.516H338.942ZM338.758 194.989C338.643 195.091 338.469 195.165 338.188 195.165V196.065C338.632 196.065 339.038 195.944 339.357 195.66L338.758 194.989ZM338.188 195.165H333.485V196.065H338.188V195.165ZM333.035 195.615V198.664H333.935V195.615H333.035ZM333.485 199.114H337.959V198.214H333.485V199.114ZM337.959 199.114C338.205 199.114 338.352 199.181 338.45 199.273L339.067 198.618C338.766 198.336 338.381 198.214 337.959 198.214V199.114ZM338.46 199.282C338.556 199.367 338.616 199.483 338.616 199.684H339.516C339.516 199.264 339.372 198.887 339.057 198.608L338.46 199.282ZM338.616 199.684C338.616 199.894 338.554 200.011 338.46 200.094L339.057 200.767C339.374 200.488 339.516 200.107 339.516 199.684H338.616ZM338.456 200.099C338.358 200.188 338.208 200.254 337.959 200.254V201.154C338.377 201.154 338.761 201.037 339.061 200.764L338.456 200.099ZM337.959 200.254H333.485V201.154H337.959V200.254ZM333.035 200.704V203.903H333.935V200.704H333.035ZM333.485 204.353H338.188V203.453H333.485V204.353ZM338.188 204.353C338.466 204.353 338.638 204.427 338.753 204.533L339.362 203.87C339.043 203.578 338.636 203.453 338.188 203.453V204.353ZM338.763 204.541C338.871 204.636 338.942 204.77 338.942 205.001H339.842C339.842 204.553 339.689 204.154 339.352 203.862L338.763 204.541ZM338.942 205.001C338.942 205.237 338.872 205.378 338.762 205.479L339.371 206.141C339.695 205.843 339.842 205.446 339.842 205.001H338.942ZM338.766 205.474C338.653 205.575 338.476 205.65 338.188 205.65V206.55C338.636 206.55 339.046 206.431 339.366 206.146L338.766 205.474ZM338.188 205.65H332.158V206.55H338.188V205.65ZM344.434 205.643L344.221 206.039L344.223 206.041L344.434 205.643ZM342.782 203.876L343.205 203.723L343.202 203.716L342.782 203.876ZM342.967 202.321L343.281 202.643L343.285 202.639L342.967 202.321ZM344.505 202.18L344.258 202.557L344.264 202.56L344.272 202.565L344.505 202.18ZM345.032 202.769L345.446 202.593L345.436 202.568L345.423 202.545L345.032 202.769ZM346.017 203.824L345.811 204.224L345.813 204.225L346.017 203.824ZM349.374 203.719L349.12 203.347L349.117 203.349L349.374 203.719ZM349.541 201.547L349.812 201.188L349.541 201.547ZM347.854 200.923L347.944 200.482L347.94 200.481L347.854 200.923ZM346.509 200.659L346.422 201.101H346.423L346.509 200.659ZM343.354 195.034L342.985 194.776H342.985L343.354 195.034ZM345.076 193.672L344.899 193.259H344.898L345.076 193.672ZM350.561 193.892L350.781 193.5L350.561 193.892ZM352.213 195.826L351.787 195.97L351.788 195.976L352.213 195.826ZM351.994 197.188L352.302 197.515L351.994 197.188ZM350.428 197.293L350.187 197.673L350.192 197.676L350.428 197.293ZM349.91 196.696L349.499 196.878L349.507 196.896L349.517 196.914L349.91 196.696ZM345.999 195.772L346.259 196.141L346.262 196.138L345.999 195.772ZM345.893 197.856L345.62 198.212L345.622 198.215L345.893 197.856ZM347.511 198.454L347.601 198.013L347.598 198.012L347.511 198.454ZM348.846 198.726L348.757 199.167H348.758L348.846 198.726ZM351.773 199.974L351.468 200.305L351.47 200.306L351.773 199.974ZM347.59 205.861C346.374 205.861 345.4 205.646 344.646 205.246L344.223 206.041C345.145 206.53 346.274 206.761 347.59 206.761V205.861ZM344.648 205.247C343.884 204.835 343.423 204.322 343.205 203.723L342.359 204.03C342.669 204.883 343.309 205.548 344.221 206.039L344.648 205.247ZM343.202 203.716C343.126 203.513 343.092 203.331 343.092 203.164H342.192C342.192 203.456 342.251 203.747 342.362 204.036L343.202 203.716ZM343.092 203.164C343.092 202.913 343.165 202.756 343.281 202.643L342.653 201.998C342.335 202.307 342.192 202.712 342.192 203.164H343.092ZM343.285 202.639C343.407 202.518 343.568 202.445 343.811 202.445V201.545C343.362 201.545 342.961 201.69 342.649 202.002L343.285 202.639ZM343.811 202.445C344.019 202.445 344.159 202.491 344.258 202.557L344.752 201.804C344.476 201.622 344.154 201.545 343.811 201.545V202.445ZM344.272 202.565C344.379 202.63 344.507 202.758 344.642 202.993L345.423 202.545C345.241 202.229 345.018 201.964 344.738 201.795L344.272 202.565ZM344.618 202.945C344.859 203.512 345.262 203.942 345.811 204.224L346.222 203.423C345.857 203.236 345.604 202.963 345.446 202.593L344.618 202.945ZM345.813 204.225C346.351 204.497 346.968 204.625 347.651 204.625V203.725C347.08 203.725 346.608 203.619 346.22 203.422L345.813 204.225ZM347.651 204.625C348.422 204.625 349.095 204.459 349.63 204.088L349.117 203.349C348.774 203.586 348.298 203.725 347.651 203.725V204.625ZM349.628 204.089C350.175 203.716 350.492 203.199 350.492 202.558H349.592C349.592 202.854 349.464 203.111 349.12 203.347L349.628 204.089ZM350.492 202.558C350.492 201.996 350.26 201.526 349.812 201.188L349.27 201.907C349.49 202.072 349.592 202.276 349.592 202.558H350.492ZM349.812 201.188C349.395 200.874 348.752 200.65 347.944 200.482L347.762 201.364C348.538 201.524 349.018 201.717 349.27 201.907L349.812 201.188ZM347.94 200.481L346.595 200.218L346.423 201.101L347.767 201.365L347.94 200.481ZM346.596 200.218C345.386 199.978 344.535 199.579 343.992 199.06C343.462 198.553 343.188 197.898 343.188 197.056H342.288C342.288 198.118 342.643 199.016 343.37 199.711C344.083 200.392 345.118 200.843 346.422 201.101L346.596 200.218ZM343.188 197.056C343.188 196.38 343.369 195.798 343.723 195.293L342.985 194.776C342.518 195.443 342.288 196.208 342.288 197.056H343.188ZM343.722 195.294C344.085 194.776 344.59 194.372 345.254 194.085L344.898 193.259C344.097 193.605 343.454 194.109 342.985 194.776L343.722 195.294ZM345.253 194.086C345.928 193.797 346.701 193.648 347.581 193.648V192.748C346.598 192.748 345.702 192.915 344.899 193.259L345.253 194.086ZM347.581 193.648C348.688 193.648 349.6 193.867 350.339 194.284L350.781 193.5C349.879 192.991 348.807 192.748 347.581 192.748V193.648ZM350.339 194.284C351.072 194.697 351.544 195.258 351.787 195.97L352.639 195.681C352.319 194.741 351.69 194.013 350.781 193.5L350.339 194.284ZM351.788 195.976C351.834 196.105 351.859 196.25 351.859 196.414H352.759C352.759 196.157 352.72 195.909 352.637 195.675L351.788 195.976ZM351.859 196.414C351.859 196.619 351.796 196.754 351.684 196.861L352.302 197.515C352.612 197.222 352.759 196.843 352.759 196.414H351.859ZM351.685 196.861C351.58 196.96 351.426 197.028 351.175 197.028V197.928C351.606 197.928 351.996 197.803 352.302 197.515L351.685 196.861ZM351.175 197.028C350.938 197.028 350.776 196.979 350.665 196.91L350.192 197.676C350.48 197.854 350.816 197.928 351.175 197.928V197.028ZM350.671 196.914C350.56 196.843 350.433 196.711 350.304 196.478L349.517 196.914C349.692 197.231 349.911 197.497 350.187 197.673L350.671 196.914ZM350.321 196.514C350.088 195.985 349.734 195.57 349.255 195.292C348.781 195.016 348.215 194.892 347.581 194.892V195.792C348.101 195.792 348.501 195.894 348.803 196.069C349.101 196.242 349.334 196.504 349.499 196.878L350.321 196.514ZM347.581 194.892C346.862 194.892 346.233 195.05 345.736 195.408L346.262 196.138C346.562 195.922 346.988 195.792 347.581 195.792V194.892ZM345.739 195.405C345.229 195.765 344.951 196.271 344.951 196.889H345.851C345.851 196.582 345.972 196.343 346.259 196.141L345.739 195.405ZM344.951 196.889C344.951 197.43 345.188 197.881 345.62 198.212L346.168 197.499C345.944 197.327 345.851 197.133 345.851 196.889H344.951ZM345.622 198.215C346.039 198.529 346.658 198.744 347.423 198.895L347.598 198.012C346.874 197.869 346.416 197.687 346.164 197.497L345.622 198.215ZM347.421 198.895L348.757 199.167L348.936 198.285L347.601 198.013L347.421 198.895ZM348.758 199.167C350.066 199.43 350.947 199.823 351.468 200.305L352.079 199.643C351.381 198.999 350.311 198.561 348.935 198.284L348.758 199.167ZM351.47 200.306C351.976 200.769 352.246 201.406 352.246 202.268H353.146C353.146 201.197 352.801 200.303 352.077 199.642L351.47 200.306ZM352.246 202.268C352.246 203.383 351.844 204.233 351.045 204.869L351.605 205.573C352.634 204.755 353.146 203.638 353.146 202.268H352.246ZM351.045 204.869C350.235 205.513 349.1 205.861 347.59 205.861V206.761C349.232 206.761 350.588 206.383 351.605 205.573L351.045 204.869Z"
              fill="#F2F2F7"/>
        <path d="M400.5 218.7H243.9C240.918 218.7 238.5 221.118 238.5 224.1V243.9C238.5 246.882 240.918 249.3 243.9 249.3H400.5C403.482 249.3 405.9 246.882 405.9 243.9V224.1C405.9 221.118 403.482 218.7 400.5 218.7Z"
              fill="black"/>
        <path d="M261.867 231.026V236.432C261.867 239.708 261.098 242.291 259.561 244.181C258.024 246.046 255.768 246.978 252.795 246.978C249.821 246.978 247.566 246.046 246.029 244.181C244.491 242.291 243.723 239.708 243.723 236.432V231.026C243.723 227.75 244.491 225.18 246.029 223.315C247.566 221.45 249.821 220.518 252.795 220.518C255.768 220.518 258.024 221.45 259.561 223.315C261.098 225.18 261.867 227.75 261.867 231.026ZM257.293 231.026C257.293 226.818 255.794 224.714 252.795 224.714C251.258 224.714 250.124 225.243 249.393 226.301C248.662 227.36 248.297 228.935 248.297 231.026V236.432C248.297 238.523 248.662 240.111 249.393 241.195C250.124 242.253 251.258 242.782 252.795 242.782C255.794 242.782 257.293 240.665 257.293 236.432V231.026ZM292.498 231.026V236.432C292.498 239.708 291.73 242.291 290.192 244.181C288.655 246.046 286.4 246.978 283.426 246.978C280.453 246.978 278.197 246.046 276.66 244.181C275.123 242.291 274.354 239.708 274.354 236.432V231.026C274.354 227.75 275.123 225.18 276.66 223.315C278.197 221.45 280.453 220.518 283.426 220.518C286.4 220.518 288.655 221.45 290.192 223.315C291.73 225.18 292.498 227.75 292.498 231.026ZM287.924 231.026C287.924 226.818 286.425 224.714 283.426 224.714C281.889 224.714 280.755 225.243 280.024 226.301C279.293 227.36 278.928 228.935 278.928 231.026V236.432C278.928 238.523 279.293 240.111 280.024 241.195C280.755 242.253 281.889 242.782 283.426 242.782C286.425 242.782 287.924 240.665 287.924 236.432V231.026ZM302.907 224.563L309.446 220.896H313.226V246.6H308.766V225.886L304.91 228.002L302.907 224.563ZM344.939 231.026V236.432C344.939 239.708 344.17 242.291 342.633 244.181C341.096 246.046 338.84 246.978 335.867 246.978C332.893 246.978 330.637 246.046 329.1 244.181C327.563 242.291 326.795 239.708 326.795 236.432V231.026C326.795 227.75 327.563 225.18 329.1 223.315C330.637 221.45 332.893 220.518 335.867 220.518C338.84 220.518 341.096 221.45 342.633 223.315C344.17 225.18 344.939 227.75 344.939 231.026ZM340.365 231.026C340.365 226.818 338.865 224.714 335.867 224.714C334.329 224.714 333.195 225.243 332.465 226.301C331.734 227.36 331.368 228.935 331.368 231.026V236.432C331.368 238.523 331.734 240.111 332.465 241.195C333.195 242.253 334.329 242.782 335.867 242.782C338.865 242.782 340.365 240.665 340.365 236.432V231.026ZM375.57 231.026V236.432C375.57 239.708 374.801 242.291 373.264 244.181C371.727 246.046 369.472 246.978 366.498 246.978C363.524 246.978 361.269 246.046 359.732 244.181C358.195 242.291 357.426 239.708 357.426 236.432V231.026C357.426 227.75 358.195 225.18 359.732 223.315C361.269 221.45 363.524 220.518 366.498 220.518C369.472 220.518 371.727 221.45 373.264 223.315C374.801 225.18 375.57 227.75 375.57 231.026ZM370.996 231.026C370.996 226.818 369.497 224.714 366.498 224.714C364.961 224.714 363.827 225.243 363.096 226.301C362.365 227.36 362 228.935 362 231.026V236.432C362 238.523 362.365 240.111 363.096 241.195C363.827 242.253 364.961 242.782 366.498 242.782C369.497 242.782 370.996 240.665 370.996 236.432V231.026ZM402.269 224.789C400.556 228.418 399.094 232.06 397.885 235.714C396.7 239.342 395.755 242.971 395.05 246.6H390.287C390.992 243.022 391.925 239.443 393.084 235.865C394.243 232.286 395.667 228.721 397.355 225.167H386.318V220.896H402.269V224.789Z"
              fill="#F2F2F7"/>
        <path d="M284.577 428.894C284.126 429.369 283.486 429.608 282.658 429.608C281.83 429.608 281.185 429.369 280.726 428.894C280.275 428.418 280.049 427.746 280.049 426.876V414.276C280.049 413.406 280.275 412.734 280.726 412.258C281.185 411.782 281.83 411.544 282.658 411.544H288.158C290.144 411.544 291.739 412.131 292.945 413.304C294.159 414.477 294.766 416.048 294.766 418.017C294.766 419.961 294.126 421.52 292.846 422.692C291.567 423.866 289.885 424.452 287.801 424.452H285.267V426.876C285.267 427.746 285.037 428.418 284.577 428.894ZM285.267 420.601H286.731C287.608 420.601 288.29 420.383 288.773 419.948C289.257 419.505 289.499 418.865 289.499 418.029C289.499 417.2 289.257 416.569 288.773 416.134C288.298 415.691 287.629 415.47 286.768 415.47H285.267V420.601ZM284.269 457.694C283.819 458.169 283.179 458.408 282.351 458.408C281.522 458.408 280.878 458.169 280.418 457.694C279.967 457.218 279.742 456.546 279.742 455.676V443.076C279.742 442.206 279.967 441.534 280.418 441.058C280.878 440.582 281.522 440.344 282.351 440.344H287.629C289.975 440.344 291.756 440.87 292.969 441.919C294.192 442.969 294.803 444.454 294.803 446.374C294.803 447.391 294.585 448.331 294.151 449.192C293.724 450.044 293.1 450.709 292.28 451.184L294.138 454.236C294.359 454.605 294.507 454.918 294.581 455.171C294.655 455.418 294.692 455.701 294.692 456.02C294.692 456.718 294.446 457.292 293.953 457.744C293.469 458.186 292.85 458.408 292.096 458.408C291.464 458.408 290.968 458.268 290.606 457.989C290.254 457.71 289.844 457.152 289.376 456.316L287.039 452.145H284.959V455.676C284.959 456.546 284.729 457.218 284.269 457.694ZM284.959 448.7H287.113C287.842 448.7 288.417 448.494 288.835 448.084C289.262 447.674 289.475 447.133 289.475 446.459C289.475 445.795 289.257 445.254 288.823 444.836C288.388 444.409 287.822 444.196 287.124 444.196H284.959V448.7ZM281.6 487.208C280.813 487.208 280.205 486.986 279.778 486.544C279.352 486.1 279.139 485.46 279.139 484.624V471.248C279.139 470.461 279.348 469.862 279.767 469.452C280.184 469.042 280.795 468.837 281.6 468.837C282.075 468.837 282.502 468.951 282.88 469.181C283.265 469.403 283.647 469.764 284.024 470.264L290.041 478.348H290.139V471.421C290.139 470.592 290.353 469.957 290.779 469.514C291.214 469.062 291.82 468.837 292.6 468.837C293.387 468.837 293.995 469.058 294.421 469.501C294.848 469.944 295.061 470.584 295.061 471.421V484.796C295.061 485.575 294.856 486.174 294.446 486.592C294.035 487.003 293.441 487.208 292.662 487.208C292.162 487.208 291.722 487.097 291.345 486.876C290.968 486.654 290.595 486.289 290.226 485.78L284.159 477.548H284.061V484.624C284.061 485.452 283.844 486.092 283.408 486.544C282.982 486.986 282.379 487.208 281.6 487.208ZM286.965 544.992C285.98 544.992 285.07 544.882 284.233 544.66C283.396 544.447 282.699 544.16 282.141 543.799C281.583 543.43 281.124 543.04 280.763 542.63C280.402 542.211 280.144 541.781 279.988 541.337C279.881 541.042 279.828 540.734 279.828 540.415C279.828 539.767 280.029 539.258 280.431 538.889C280.841 538.511 281.395 538.323 282.092 538.323C283.018 538.323 283.729 538.68 284.221 539.393C284.59 539.935 284.98 540.329 285.39 540.575C285.799 540.821 286.366 540.944 287.087 540.944C287.735 540.944 288.269 540.768 288.688 540.415C289.114 540.062 289.327 539.611 289.327 539.061C289.327 538.43 289.089 537.95 288.614 537.621C288.138 537.286 287.448 537.117 286.546 537.117H286.423C285.825 537.117 285.369 536.965 285.057 536.662C284.746 536.351 284.59 535.928 284.59 535.395C284.59 534.878 284.746 534.463 285.057 534.152C285.377 533.84 285.833 533.684 286.423 533.684H286.546C287.35 533.684 287.974 533.52 288.417 533.192C288.868 532.864 289.093 532.413 289.093 531.839C289.093 531.289 288.901 530.854 288.515 530.534C288.138 530.214 287.621 530.054 286.965 530.054C285.923 530.054 285.151 530.493 284.651 531.371C284.356 531.896 284.028 532.265 283.667 532.479C283.315 532.692 282.855 532.798 282.289 532.798C281.6 532.798 281.071 532.618 280.702 532.256C280.341 531.887 280.16 531.404 280.16 530.805C280.16 530.485 280.218 530.165 280.332 529.845C280.497 529.394 280.755 528.963 281.108 528.553C281.461 528.143 281.899 527.762 282.424 527.409C282.957 527.056 283.613 526.777 284.393 526.572C285.18 526.359 286.03 526.253 286.94 526.253C288.277 526.253 289.462 526.433 290.496 526.793C291.53 527.154 292.354 527.704 292.969 528.442C293.584 529.181 293.892 530.062 293.892 531.088C293.892 532.187 293.544 533.098 292.846 533.82C292.157 534.533 291.292 534.997 290.25 535.21V535.308C291.62 535.448 292.691 535.879 293.461 536.601C294.241 537.323 294.63 538.269 294.63 539.443C294.63 541.149 293.945 542.503 292.576 543.504C291.206 544.496 289.336 544.992 286.965 544.992ZM282.535 573.3C281.722 573.3 281.111 573.099 280.702 572.697C280.3 572.287 280.099 571.738 280.099 571.048C280.099 570.572 280.21 570.137 280.431 569.744C280.66 569.35 281.026 568.944 281.526 568.526L286.411 564.342C287.411 563.489 288.088 562.817 288.441 562.325C288.794 561.832 288.97 561.324 288.97 560.798C288.97 560.241 288.773 559.786 288.38 559.433C287.986 559.08 287.473 558.904 286.842 558.904C286.382 558.904 285.976 559.014 285.623 559.236C285.279 559.457 284.938 559.81 284.602 560.294C284.258 560.795 283.909 561.151 283.556 561.364C283.212 561.569 282.789 561.672 282.289 561.672C281.624 561.672 281.1 561.492 280.714 561.131C280.336 560.769 280.147 560.273 280.147 559.642C280.147 559.231 280.226 558.846 280.381 558.485C280.849 557.427 281.666 556.591 282.83 555.975C284.003 555.359 285.365 555.053 286.915 555.053C289.065 555.053 290.779 555.548 292.059 556.541C293.347 557.526 293.99 558.83 293.99 560.454C293.99 560.93 293.933 561.372 293.818 561.783C293.711 562.193 293.568 562.567 293.387 562.902C293.215 563.239 292.945 563.612 292.576 564.022C292.215 564.432 291.849 564.809 291.48 565.154C291.119 565.491 290.627 565.93 290.004 566.471L286.768 569.264V569.363H292.404C293.052 569.363 293.552 569.539 293.905 569.892C294.266 570.245 294.446 570.724 294.446 571.331C294.446 571.93 294.266 572.41 293.905 572.771C293.544 573.124 293.044 573.3 292.404 573.3H282.535ZM290.508 601.706C290.032 602.174 289.401 602.408 288.614 602.408C287.826 602.408 287.194 602.174 286.718 601.706C286.243 601.239 286.005 600.615 286.005 599.836V588.811H285.907L284.024 590.116C283.63 590.386 283.224 590.522 282.806 590.522C282.314 590.522 281.903 590.357 281.575 590.029C281.247 589.693 281.083 589.271 281.083 588.762C281.083 588.015 281.411 587.42 282.067 586.977L285.291 584.825C285.767 584.504 286.231 584.295 286.681 584.196C287.132 584.09 287.65 584.037 288.232 584.037C289.167 584.037 289.897 584.299 290.422 584.825C290.956 585.341 291.222 586.05 291.222 586.953V599.836C291.222 600.615 290.984 601.239 290.508 601.706Z"
              fill="#F2F2F7"/>
        <path d="M281.846 515.7C281.018 515.7 280.373 515.462 279.914 514.986C279.463 514.51 279.238 513.838 279.238 512.968V500.676C279.238 499.806 279.463 499.134 279.914 498.658C280.373 498.182 281.018 497.944 281.846 497.944H286.829C289.544 497.944 291.649 498.699 293.142 500.208C294.635 501.709 295.381 503.871 295.381 506.693C295.381 509.531 294.627 511.742 293.117 513.325C291.616 514.908 289.52 515.7 286.829 515.7H281.846ZM284.455 511.554H286.091C288.741 511.554 290.066 509.933 290.066 506.693C290.066 505.208 289.717 504.072 289.02 503.284C288.33 502.489 287.355 502.091 286.091 502.091H284.455V511.554Z"
              fill="#34C759"/>
        <path d="M360.168 472.365C359.421 472.365 358.823 472.156 358.371 471.738C357.928 471.319 357.707 470.704 357.707 469.892V469.239H352.157C351.214 469.239 350.447 468.969 349.856 468.427C349.266 467.887 348.97 467.185 348.97 466.323C348.97 465.404 349.307 464.347 349.979 463.149C351.022 461.287 352.228 459.277 353.597 457.12C354.335 455.954 355.049 455.143 355.738 454.684C356.435 454.224 357.293 453.994 358.31 453.994C359.606 453.994 360.648 454.326 361.435 454.99C362.231 455.647 362.629 456.52 362.629 457.612V465.241H363.035C363.691 465.241 364.191 465.425 364.536 465.794C364.881 466.155 365.053 466.639 365.053 467.247C365.053 467.845 364.881 468.329 364.536 468.698C364.191 469.059 363.687 469.239 363.022 469.239H362.629V469.892C362.629 470.695 362.403 471.311 361.952 471.738C361.501 472.156 360.906 472.365 360.168 472.365ZM357.854 465.45V457.784H357.756C355.935 460.442 354.43 462.948 353.24 465.302V465.45H357.854ZM356.722 501.349C355.738 501.349 354.828 501.239 353.991 501.017C353.155 500.804 352.457 500.517 351.899 500.156C351.341 499.787 350.882 499.397 350.521 498.987C350.16 498.568 349.902 498.138 349.745 497.695C349.639 497.4 349.586 497.092 349.586 496.772C349.586 496.124 349.787 495.616 350.189 495.247C350.599 494.869 351.153 494.68 351.85 494.68C352.777 494.68 353.487 495.038 353.979 495.751C354.348 496.292 354.738 496.687 355.147 496.932C355.558 497.178 356.124 497.301 356.845 497.301C357.493 497.301 358.027 497.125 358.445 496.772C358.871 496.419 359.085 495.968 359.085 495.418C359.085 494.788 358.847 494.307 358.371 493.979C357.896 493.643 357.206 493.474 356.305 493.474H356.181C355.582 493.474 355.127 493.323 354.815 493.019C354.504 492.708 354.348 492.286 354.348 491.752C354.348 491.235 354.504 490.821 354.815 490.509C355.135 490.198 355.591 490.042 356.181 490.042H356.305C357.108 490.042 357.731 489.877 358.175 489.55C358.626 489.221 358.852 488.77 358.852 488.196C358.852 487.646 358.658 487.211 358.273 486.892C357.896 486.571 357.379 486.412 356.722 486.412C355.681 486.412 354.91 486.85 354.409 487.728C354.114 488.254 353.785 488.623 353.425 488.836C353.072 489.049 352.613 489.155 352.047 489.155C351.357 489.155 350.829 488.975 350.459 488.614C350.098 488.245 349.918 487.761 349.918 487.163C349.918 486.842 349.976 486.523 350.09 486.202C350.255 485.752 350.513 485.32 350.866 484.911C351.219 484.501 351.657 484.119 352.182 483.766C352.715 483.413 353.371 483.134 354.151 482.929C354.938 482.716 355.787 482.61 356.698 482.61C358.035 482.61 359.221 482.79 360.254 483.151C361.288 483.512 362.112 484.061 362.727 484.8C363.343 485.538 363.65 486.42 363.65 487.445C363.65 488.544 363.301 489.455 362.605 490.177C361.915 490.891 361.049 491.354 360.008 491.567V491.665C361.378 491.805 362.448 492.236 363.219 492.958C363.999 493.68 364.388 494.627 364.388 495.8C364.388 497.506 363.703 498.86 362.334 499.861C360.964 500.854 359.094 501.349 356.722 501.349ZM352.293 529.657C351.481 529.657 350.869 529.456 350.459 529.054C350.058 528.645 349.856 528.095 349.856 527.405C349.856 526.93 349.968 526.495 350.189 526.101C350.419 525.708 350.783 525.301 351.283 524.884L356.169 520.699C357.169 519.846 357.846 519.174 358.199 518.682C358.552 518.189 358.728 517.681 358.728 517.156C358.728 516.598 358.531 516.143 358.138 515.79C357.744 515.437 357.232 515.261 356.6 515.261C356.14 515.261 355.734 515.371 355.381 515.593C355.036 515.814 354.696 516.167 354.36 516.651C354.016 517.152 353.667 517.509 353.314 517.722C352.969 517.927 352.547 518.029 352.047 518.029C351.382 518.029 350.857 517.849 350.472 517.488C350.095 517.127 349.906 516.631 349.906 516C349.906 515.589 349.984 515.203 350.14 514.842C350.607 513.785 351.423 512.948 352.588 512.332C353.761 511.717 355.123 511.41 356.674 511.41C358.823 511.41 360.537 511.906 361.817 512.898C363.105 513.883 363.748 515.187 363.748 516.811C363.748 517.288 363.691 517.73 363.577 518.14C363.469 518.55 363.326 518.924 363.145 519.26C362.974 519.596 362.703 519.97 362.334 520.38C361.973 520.789 361.607 521.167 361.238 521.512C360.877 521.848 360.385 522.287 359.761 522.828L356.526 525.622V525.72H362.161C362.809 525.72 363.309 525.896 363.662 526.249C364.023 526.602 364.204 527.081 364.204 527.689C364.204 528.287 364.023 528.767 363.662 529.128C363.301 529.481 362.801 529.657 362.161 529.657H352.293ZM360.266 558.064C359.79 558.531 359.158 558.765 358.371 558.765C357.583 558.765 356.953 558.531 356.476 558.064C356 557.596 355.763 556.973 355.763 556.194V545.169H355.665L353.782 546.473C353.388 546.744 352.982 546.879 352.563 546.879C352.071 546.879 351.661 546.715 351.333 546.386C351.005 546.05 350.841 545.628 350.841 545.119C350.841 544.373 351.169 543.778 351.825 543.335L355.049 541.182C355.525 540.862 355.989 540.652 356.44 540.554C356.89 540.447 357.407 540.394 357.99 540.394C358.925 540.394 359.655 540.657 360.18 541.182C360.714 541.698 360.98 542.408 360.98 543.31V556.194C360.98 556.973 360.742 557.596 360.266 558.064Z"
              fill="#F2F2F7"/>
        <g filter="url(#filter0_f_62_615)">
            <path d="M299.7 506.664L316.575 497.311V516.017L299.7 506.664Z" fill="#FF453A" fill-opacity="0.8"/>
        </g>
        <path d="M302.4 506.7L315.9 498.906V514.494L302.4 506.7Z" fill="#FF453A"/>
        <path d="M160.069 335.352C159.627 335.816 158.999 336.048 158.188 336.048C157.375 336.048 156.742 335.816 156.289 335.352C155.846 334.877 155.624 334.213 155.624 333.358V316.289C155.624 315.096 155.951 314.174 156.605 313.52C157.259 312.855 158.188 312.523 159.39 312.523C160.402 312.523 161.209 312.75 161.81 313.204C162.411 313.657 162.918 314.417 163.329 315.482L168.091 327.537H168.217L172.964 315.482C173.385 314.417 173.897 313.657 174.498 313.204C175.099 312.75 175.911 312.523 176.935 312.523C178.126 312.523 179.049 312.85 179.703 313.504C180.356 314.158 180.684 315.086 180.684 316.289V333.358C180.684 334.213 180.457 334.877 180.004 335.352C179.561 335.816 178.933 336.048 178.121 336.048C177.309 336.048 176.681 335.816 176.238 335.352C175.795 334.877 175.574 334.213 175.574 333.358V321.446H175.463L170.384 334.007C169.973 335.051 169.235 335.573 168.169 335.573C167.073 335.573 166.324 335.051 165.923 334.007L160.861 321.446H160.735V333.358C160.735 334.213 160.513 334.877 160.069 335.352ZM189.179 335.257C188.673 335.785 187.961 336.048 187.043 336.048C186.126 336.048 185.409 335.785 184.892 335.257C184.386 334.73 184.133 333.986 184.133 333.026V315.909C184.133 314.949 184.386 314.205 184.892 313.678C185.409 313.141 186.126 312.872 187.043 312.872H194.02C196.478 312.872 198.461 313.61 199.969 315.086C201.487 316.553 202.247 318.508 202.247 320.955C202.247 323.381 201.456 325.332 199.874 326.809C198.292 328.275 196.224 329.008 193.672 329.008H189.939V333.026C189.939 333.986 189.686 334.73 189.179 335.257ZM189.939 324.642H192.454C193.699 324.642 194.664 324.325 195.349 323.692C196.034 323.059 196.377 322.152 196.377 320.972C196.377 319.79 196.034 318.888 195.349 318.266C194.674 317.633 193.72 317.317 192.486 317.317H189.939V324.642ZM209.872 335.257C209.366 335.785 208.654 336.048 207.736 336.048C206.819 336.048 206.102 335.785 205.585 335.257C205.078 334.73 204.826 333.986 204.826 333.026V315.545C204.826 314.585 205.078 313.842 205.585 313.314C206.102 312.787 206.819 312.523 207.736 312.523C208.654 312.523 209.366 312.787 209.872 313.314C210.379 313.842 210.631 314.585 210.631 315.545V321.826H219.729V315.545C219.729 314.585 219.982 313.842 220.487 313.314C220.994 312.787 221.706 312.523 222.623 312.523C223.541 312.523 224.253 312.787 224.759 313.314C225.265 313.842 225.518 314.585 225.518 315.545V333.026C225.518 333.986 225.265 334.73 224.759 335.257C224.253 335.785 223.541 336.048 222.623 336.048C221.706 336.048 220.994 335.785 220.487 335.257C219.982 334.73 219.729 333.986 219.729 333.026V326.508H210.631V333.026C210.631 333.986 210.379 334.73 209.872 335.257Z"
              fill="#F2F2F7"/>
        <path d="M49.5 318.6H29.7C28.7059 318.6 27.9 319.406 27.9 320.4C27.9 321.394 28.7059 322.2 29.7 322.2H49.5C50.4941 322.2 51.3 321.394 51.3 320.4C51.3 319.406 50.4941 318.6 49.5 318.6Z"
              fill="#F2F2F7"/>
        <path d="M614.7 318.6H594.9C593.906 318.6 593.1 319.406 593.1 320.4C593.1 321.394 593.906 322.2 594.9 322.2H614.7C615.694 322.2 616.5 321.394 616.5 320.4C616.5 319.406 615.694 318.6 614.7 318.6Z"
              fill="#F2F2F7"/>
        <path d="M85.3061 455.4L68.1588 465.3C67.2979 465.797 67.0029 466.898 67.5 467.759C67.997 468.62 69.0979 468.915 69.9588 468.418L87.1061 458.518C87.9671 458.021 88.262 456.92 87.765 456.059C87.2679 455.198 86.1671 454.903 85.3061 455.4Z"
              fill="#F2F2F7"/>
        <path d="M574.784 172.8L557.636 182.7C556.776 183.197 556.481 184.298 556.978 185.159C557.475 186.02 558.576 186.315 559.436 185.818L576.584 175.918C577.445 175.421 577.74 174.32 577.243 173.459C576.746 172.598 575.645 172.303 574.784 172.8Z"
              fill="#F2F2F7"/>
        <path d="M467.1 66.0163L457.2 83.1636C456.703 84.0245 456.998 85.1254 457.859 85.6224C458.72 86.1195 459.821 85.8245 460.318 84.9636L470.218 67.8163C470.715 66.9553 470.42 65.8545 469.559 65.3574C468.698 64.8604 467.597 65.1553 467.1 66.0163Z"
              fill="#F2F2F7"/>
        <path d="M320.4 27.9V47.7C320.4 48.6941 321.206 49.5 322.2 49.5C323.194 49.5 324 48.6941 324 47.7V27.9C324 26.9059 323.194 26.1 322.2 26.1C321.206 26.1 320.4 26.9059 320.4 27.9Z"
              fill="#F2F2F7"/>
        <path d="M174.6 67.8163L184.5 84.9636C184.997 85.8245 186.098 86.1195 186.959 85.6225C187.82 85.1254 188.115 84.0245 187.618 83.1636L177.718 66.0163C177.221 65.1554 176.12 64.8604 175.259 65.3575C174.398 65.8545 174.103 66.9554 174.6 67.8163Z"
              fill="#F2F2F7"/>
        <path d="M557.294 458.1L574.441 468C575.302 468.497 576.403 468.202 576.9 467.341C577.397 466.48 577.102 465.379 576.241 464.882L559.094 454.982C558.233 454.485 557.132 454.78 556.635 455.641C556.138 456.502 556.433 457.603 557.294 458.1Z"
              fill="#F2F2F7"/>
        <path d="M67.8164 175.5L84.9637 185.4C85.8247 185.897 86.9255 185.602 87.4226 184.741C87.9196 183.88 87.6247 182.779 86.7637 182.282L69.6164 172.382C68.7555 171.885 67.6546 172.18 67.1576 173.041C66.6605 173.902 66.9555 175.003 67.8164 175.5Z"
              fill="#F2F2F7"/>
        <!--<path d="M49.8668 260.228C50.1457 259.014 51.3516 258.253 52.567 258.523L362.251 327.431C364.672 327.969 366.191 330.376 365.636 332.794C365.081 335.21 362.663 336.713 360.249 336.141L51.5521 262.939C50.3405 262.652 49.5879 261.441 49.8668 260.228Z" fill="#FF453A"/>-->
    </g>
    <defs>
        <filter id="filter0_f_62_615" x="295.7" y="493.311" width="24.8749" height="26.7056"
                filterUnits="userSpaceOnUse" color-interpolation-filters="sRGB">
            <feFlood flood-opacity="0" result="BackgroundImageFix"/>
            <feBlend mode="normal" in="SourceGraphic" in2="BackgroundImageFix" result="shape"/>
            <feGaussianBlur stdDeviation="2" result="effect1_foregroundBlur_62_615"/>
        </filter>
        <linearGradient id="paint0_linear_62_615" x1="324" y1="0" x2="324" y2="648" gradientUnits="userSpaceOnUse">
            <stop stop-color="#444446"/>
            <stop offset="1" stop-color="#242426"/>
        </linearGradient>
        <linearGradient id="paint1_linear_62_615" x1="324" y1="294.3" x2="324" y2="353.7"
                        gradientUnits="userSpaceOnUse">
            <stop stop-color="#14181C"/>
            <stop offset="0.458786" stop-color="#313D47"/>
            <stop offset="0.979806"/>
        </linearGradient>
        <clipPath id="clip0_62_615">
            <rect width="648" height="648" fill="white"/>
        </clipPath>
    </defs>
</svg>
